<?xml version="1.0" encoding="iso-8859-1"?>
<!-- Uploaded to: SVG Repo, www.svgrepo.com, Generator: SVG Repo Mixer Tools -->
<svg height="800px" width="800px" version="1.1" id="Layer_1" xmlns="http://www.w3.org/2000/svg" xmlns:xlink="http://www.w3.org/1999/xlink" 
	 viewBox="0 0 512 512" xml:space="preserve">
<path style="fill:#AB91EA;" d="M512,256.006C512,397.402,397.394,512.004,256.004,512C114.606,512.004,0,397.402,0,256.006
	C-0.007,114.61,114.606,0,256.004,0C397.394,0,512,114.614,512,256.006z"/>
<path style="fill:#947ADB;" d="M508.536,297.884c-0.32-0.322-154.674-154.681-155.172-155.172
	c-12.611-13.149-28.868-21.111-46.618-21.111c-7.931,0-15.617,1.595-22.975,4.644c-0.368-0.395-25.885-25.797-26.374-26.301
	C244.165,85.587,226.672,76.8,207.467,76.8c-41.172,0-74.667,40.195-74.667,89.6c0,26.129,9.456,49.554,24.379,65.934
	c0.465,0.538,23.038,21.535,32.621,32.621c0.465,0.538,2.377,2.336,2.795,2.798c0.401,12.327,3.577,31.634,17.271,50.25
	c9.18,12.48,4.586,26.064-3.668,47.196c-5.491,14.051-11.71,29.98-11.963,47.498c-0.034,2.461,1.205,4.557,3.023,5.943
	c0.434,0.599,89.919,90.079,90.487,90.51c0.21,0.284,0.489,0.49,0.732,0.732C400.73,495.663,490.275,408.827,508.536,297.884z"/>
<path style="fill:#F4F6F9;" d="M379.2,211.2c0-49.405-32.502-89.6-72.453-89.6c-10.874,0-21.305,2.922-31.03,8.612
	C264.101,98.797,237.904,76.8,207.467,76.8c-41.172,0-74.667,40.195-74.667,89.6c0,40.544,22.574,74.839,53.42,85.854
	c-0.667,1.118-1.153,2.351-1.153,3.746c0,4.124,3.343,7.467,7.467,7.467h0.01c-0.193,11.766,1.933,33.616,17.323,54.534
	c9.18,12.48,4.587,26.064-3.667,47.196c-5.49,14.051-11.711,29.98-11.962,47.498c-0.059,4.124,3.237,7.514,7.361,7.572
	c0.036,0,0.073,0,0.11,0c4.073,0,7.405-3.274,7.463-7.361c0.211-14.813,5.666-28.773,10.938-42.273
	c8.017-20.523,16.304-41.741,1.79-61.479c-12.94-17.59-14.543-36.273-14.384-45.695c4.1-0.027,7.421-3.35,7.421-7.457
	c0-0.159-0.081-0.291-0.091-0.448c9.051-1.071,17.593-4.164,25.409-8.774c9.127,26.288,27.636,45.246,49.83,51.635
	c-0.26,0.758-0.482,1.541-0.482,2.387c0,3.973,3.127,7.149,7.042,7.381c-0.007,0.574-0.094,1.138,0.037,1.723
	c0.041,0.19,4.021,18.998-13.398,37.045c-15.79,16.355-6.628,34.223,1.455,49.991c5.126,10,10.431,20.343,10.627,30.931
	c0.077,4.076,3.405,7.328,7.463,7.328c0.047,0,0.095,0,0.142,0c4.124-0.08,7.405-3.482,7.328-7.605
	c-0.267-14.047-6.643-26.491-12.272-37.468c-8.794-17.15-11.616-24.915-4.003-32.805c19.97-20.684,18.416-42.907,17.514-49.055
	h0.464c4.124,0,7.467-3.343,7.467-7.467c0-0.502-0.191-0.942-0.286-1.417C353.217,292.059,379.2,255.353,379.2,211.2z
	 M147.733,166.4c0-41.172,26.797-74.667,59.733-74.667S267.2,125.228,267.2,166.4s-26.797,74.667-59.733,74.667
	S147.733,207.572,147.733,166.4z M306.747,285.867c-24.124,0-45.426-19.39-53.836-48.535c17.731-16.397,29.222-42.054,29.222-70.931
	c0-7.651-0.89-15.041-2.4-22.137c1.074-0.1,2.141-0.378,3.13-0.967c7.521-4.489,15.556-6.763,23.884-6.763
	c31.715,0,57.52,33.494,57.52,74.667S338.462,285.867,306.747,285.867z"/>
</svg>