<?xml version="1.0" encoding="iso-8859-1"?>
<!-- Uploaded to: SVG Repo, www.svgrepo.com, Generator: SVG Repo Mixer Tools -->
<svg height="800px" width="800px" version="1.1" id="Layer_1" xmlns="http://www.w3.org/2000/svg" xmlns:xlink="http://www.w3.org/1999/xlink" 
	 viewBox="0 0 512 512" xml:space="preserve">
<path style="fill:#4A5A67;" d="M512,256.006C512,397.402,397.394,512.004,256.004,512C114.606,512.004,0,397.402,0,256.006
	C-0.007,114.61,114.606,0,256.004,0C397.394,0,512,114.614,512,256.006z"/>
<path style="fill:#444A54;" d="M512,256.005c0-2.16-0.11-4.292-0.163-6.439c-0.47-0.469-147.681-147.697-148.166-148.166
	c-3.233-3.218-5.989-5.709-7.267-6.816c-2.667-2.306-6.621-2.306-9.289,0c-4.555,3.949-27.275,24.394-27.275,39.408
	c0,8.447,3.825,16.045,9.898,21.472c0.49,0.501,21.716,21.772,22.243,22.243c0.082,0.085,0.151,0.181,0.235,0.265h-11.268
	c-0.325-0.321-76.095-76.098-76.582-76.571c-3.233-3.219-5.989-5.71-7.267-6.817c-2.667-2.306-6.621-2.306-9.289,0
	c-4.555,3.949-27.275,24.394-27.275,39.408c0,8.448,3.825,16.045,9.898,21.472c0.491,0.502,22.391,22.423,22.478,22.508h-4.176
	c-0.324-0.32-0.631-0.631-0.944-0.934c-0.511-0.509-75.14-75.155-75.62-75.62c-3.239-3.228-6.005-5.725-7.284-6.834
	c-2.668-2.306-6.622-2.306-9.289,0c-4.555,3.949-27.276,24.394-27.276,39.408c0,8.448,3.825,16.045,9.898,21.472
	c0.491,0.502,22.391,22.423,22.478,22.508h-18.19c-3.918,0-7.092,3.177-7.092,7.093v64.117h-41.19
	c-0.459-0.094-0.884-0.277-1.37-0.277c-3.918,0-7.093,3.177-7.093,7.093v133.01c0,8.793,3.71,16.538,9.647,21.999
	c0.482,0.511,0.965,1.007,1.483,1.483c0.482,0.51,88.448,88.489,88.963,88.964c0.335,0.354,0.683,0.691,1.031,1.029
	c21.995,6.155,45.156,9.517,69.119,9.516C397.394,512.004,512,397.401,512,256.005z"/>
<g>
	<path style="fill:#F4F6F9;" d="M419.147,248.906c-0.486,0-0.913,0.183-1.372,0.277h-41.188v-64.117
		c0-3.917-3.177-7.093-7.093-7.093h-35.467c-3.917,0-7.093,3.177-7.093,7.093v64.117H277.28v-64.117
		c0-3.917-3.177-7.093-7.093-7.093H234.72c-3.917,0-7.093,3.177-7.093,7.093v64.117h-42.56v-64.117c0-3.917-3.177-7.093-7.093-7.093
		h-35.467c-3.917,0-7.093,3.177-7.093,7.093v64.117H94.225c-0.459-0.094-0.885-0.277-1.372-0.277c-3.917,0-7.093,3.177-7.093,7.093
		v133.01c0,16.898,13.511,30.137,30.756,30.137h277.953c17.519,0,31.771-13.518,31.771-30.137v-133.01
		C426.24,252.082,423.064,248.906,419.147,248.906z M99.947,262.815h312.107v24.809c-2.471,14.789-21.646,28.857-35.695,28.857
		c-14.692,0-29.659-16.417-29.659-32.533c0-3.765-3.052-6.816-6.816-6.816c-3.765,0-6.816,3.052-6.816,6.816
		c0,18.288-20.289,36.17-35.436,36.17c-15.142,0-35.428-17.883-35.428-36.17c0-3.765-3.052-6.816-6.816-6.816
		c-3.765,0-6.816,3.052-6.816,6.816c0,18.288-20.279,36.17-35.414,36.17c-15.122,0-35.38-17.883-35.38-36.17
		c0-3.765-3.052-6.816-6.816-6.816c-3.765,0-6.816,3.052-6.816,6.816c0,16.116-14.775,32.533-29.281,32.533
		c-13.738,0-32.481-14.285-34.916-29.313v-24.352H99.947z M341.12,192.159h21.28v57.024h-21.28V192.159z M241.813,192.159h21.28
		v57.024h-21.28V192.159z M149.6,192.159h21.28v57.024H149.6V192.159z M394.469,404.959H116.516c-9.601,0-16.57-6.709-16.57-15.95
		v-75.172c9.805,9.807,23.202,16.274,34.916,16.274c14.391,0,28.27-9.549,36.177-22.777c9.438,15.527,26.932,26.413,42.116,26.413
		c15.239,0,32.81-10.951,42.231-26.555c9.424,15.603,27.002,26.555,42.245,26.555c15.219,0,32.758-10.91,42.196-26.468
		c7.973,13.255,21.994,22.832,36.53,22.832c11.987,0,25.715-6.482,35.695-16.294v75.193
		C412.053,397.952,404.33,404.959,394.469,404.959z"/>
	<path style="fill:#F4F6F9;" d="M351.76,163.786c17.602,0,31.92-13.365,31.92-29.793c0-15.014-22.721-35.46-27.276-39.408
		c-2.667-2.307-6.622-2.307-9.29,0c-4.555,3.949-27.276,24.394-27.276,39.408C319.84,150.42,334.158,163.786,351.76,163.786z
		 M351.76,109.561c9.234,8.891,17.733,19.683,17.733,24.432c0,8.607-7.956,15.606-17.733,15.606s-17.733-6.999-17.733-15.606
		C334.027,129.244,342.526,118.451,351.76,109.561z"/>
	<path style="fill:#F4F6F9;" d="M252.453,163.786c17.602,0,31.92-13.365,31.92-29.793c0-15.014-22.721-35.46-27.276-39.408
		c-2.667-2.307-6.622-2.307-9.29,0c-4.555,3.949-27.276,24.394-27.276,39.408C220.533,150.42,234.851,163.786,252.453,163.786z
		 M252.453,109.561c9.234,8.891,17.733,19.683,17.733,24.432c0,8.607-7.956,15.606-17.733,15.606
		c-9.777,0-17.733-6.999-17.733-15.606C234.72,129.244,243.219,118.451,252.453,109.561z"/>
	<path style="fill:#F4F6F9;" d="M160.24,163.786c17.602,0,31.92-13.365,31.92-29.793c0-15.014-22.721-35.46-27.276-39.408
		c-2.667-2.307-6.622-2.307-9.29,0c-4.555,3.949-27.276,24.394-27.276,39.408C128.32,150.42,142.638,163.786,160.24,163.786z
		 M160.24,109.561c9.234,8.891,17.733,19.683,17.733,24.432c0,8.607-7.956,15.606-17.733,15.606s-17.733-6.999-17.733-15.606
		C142.507,129.244,151.006,118.451,160.24,109.561z"/>
</g>
</svg>