<?xml version="1.0" ?><!DOCTYPE svg  PUBLIC '-//W3C//DTD SVG 1.1//EN'  'http://www.w3.org/Graphics/SVG/1.1/DTD/svg11.dtd'><!-- Uploaded to: SVG Repo, www.svgrepo.com, Generator: SVG Repo Mixer Tools -->
<svg width="800px" height="800px" viewBox="0 0 64 64" enable-background="new 0 0 64 64" id="Слой_3" version="1.1" xml:space="preserve" xmlns="http://www.w3.org/2000/svg" xmlns:xlink="http://www.w3.org/1999/xlink"><path d="  M53.141,31.687c-0.701,1.22-1.629,0.685-2.332,1.904s0.227,1.755-0.477,2.976c-0.701,1.222-1.633,0.687-2.334,1.906" fill="none" stroke="#1B1D1E" stroke-linecap="round" stroke-linejoin="round" stroke-miterlimit="10" stroke-width="2.7"/><path d="  M14.555,20.262c0.491,0,0.889,0.397,0.889,0.888c0,0.491-0.397,0.889-0.889,0.889c-0.49,0-0.888-0.397-0.888-0.889" fill="none" stroke="#1B1D1E" stroke-linecap="round" stroke-linejoin="round" stroke-miterlimit="10" stroke-width="2.7"/><line fill="none" stroke="#1B1D1E" stroke-linecap="round" stroke-linejoin="round" stroke-miterlimit="10" stroke-width="2.7" x1="53.129" x2="49.764" y1="9.024" y2="6.914"/><line fill="none" stroke="#1B1D1E" stroke-linecap="round" stroke-linejoin="round" stroke-miterlimit="10" stroke-width="2.7" x1="20.043" x2="23.408" y1="51.067" y2="48.957"/><path d="  M32.864,34.167c0.75-0.547,1.408-1.242,1.927-2.078c0.523-0.838,0.861-1.742,1.021-2.661c-2.385,1.735-5.679,1.952-8.335,0.296  c-1.311-0.818-3.035-0.419-3.853,0.893c-0.081,0.131-0.142,0.268-0.199,0.406c-0.114-0.1-0.229-0.196-0.359-0.277  c-1.311-0.818-3.036-0.419-3.853,0.893c-1.658,2.654-4.712,3.908-7.617,3.4c0.548,0.753,1.247,1.416,2.086,1.939  c3.494,2.182,8.095,1.116,10.275-2.379c0.082-0.132,0.143-0.268,0.201-0.407c0.112,0.099,0.228,0.194,0.358,0.277  c1.2,0.75,2.532,1.115,3.851,1.132" fill="none" stroke="#1B1D1E" stroke-linecap="round" stroke-linejoin="round" stroke-miterlimit="10" stroke-width="2.7"/><line fill="none" stroke="#1B1D1E" stroke-linecap="round" stroke-linejoin="round" stroke-miterlimit="10" stroke-width="2.7" x1="32.862" x2="37.943" y1="34.162" y2="56.1"/><line fill="none" stroke="#1B1D1E" stroke-linecap="round" stroke-linejoin="round" stroke-miterlimit="10" stroke-width="2.7" x1="43.561" x2="38.846" y1="20.751" y2="42.77"/><path d="  M43.561,20.751c0.652-0.566,1.186-1.238,1.563-1.994c-0.102-2.568-1.855-5.006-4.533-6.42c-0.934,0.375-1.986,0.486-3.047,0.26  c-1.059-0.228-1.975-0.76-2.672-1.484c-3.023,0.193-5.621,1.7-6.765,4.001c0.134,3.375,3.115,6.528,7.308,7.427  c1.307,0.279,2.596,0.311,3.797,0.129" fill="none" stroke="#1B1D1E" stroke-linecap="round" stroke-linejoin="round" stroke-miterlimit="10" stroke-width="2.7"/><path d="  M41.039,17.021c-1.514-0.324-3.02-0.304-4.443-0.004c-1.176-0.856-2.541-1.492-4.055-1.816c-1.505-0.321-3-0.312-4.416-0.017" fill="none" stroke="#1B1D1E" stroke-linecap="round" stroke-linejoin="round" stroke-miterlimit="10" stroke-width="2.7"/></svg>