<?xml version="1.0" encoding="iso-8859-1"?>
<!-- Uploaded to: SVG Repo, www.svgrepo.com, Generator: SVG Repo Mixer Tools -->
<svg height="800px" width="800px" version="1.1" id="Layer_1" xmlns="http://www.w3.org/2000/svg" xmlns:xlink="http://www.w3.org/1999/xlink" 
	 viewBox="0 0 512.006 512.006" xml:space="preserve">
<circle style="fill:#FAD55C;" cx="256.003" cy="256.003" r="256.003"/>
<path style="fill:#E3C04D;" d="M507.076,306.178c-20.01,100.668-99.031,180.072-199.496,200.623l-96.923-96.923l5.683-23.66
	l11.773-11.206l8.594-17.175l-17.016-12.365l-18.316-23.896l8.205-12.486l12.365-19.513l-4.606-38.338l59.967-141.689l94.903,94.909
	l16.57-16.57L507.076,306.178z"/>
<path style="fill:#FA7876;" d="M204.255,152.086c-3.389-25.037-26.438-42.581-51.475-39.192
	c-25.037,3.389-42.581,26.438-39.192,51.475c8.18,60.393,80.588,78.104,107.663,113.212c16.755-41.046,81.85-77.378,73.676-137.771
	c-3.396-25.037-26.438-42.588-51.475-39.198C218.417,104.007,200.866,127.049,204.255,152.086z"/>
<path style="fill:#ED6866;" d="M217.327,272.943c1.395,1.516,2.708,3.058,3.924,4.638c16.755-41.046,81.85-77.378,73.676-137.771
	c-1.898-14.015-9.957-25.68-21.068-32.643c8.747,7.084,14.914,17.385,16.544,29.413C298.489,196.285,234.974,232.47,217.327,272.943
	z"/>
<path style="fill:#FF8C8A;" d="M320.429,212.04c1.147-21.635-15.461-40.109-37.102-41.256c-21.635-1.147-40.103,15.461-41.25,37.102
	c-2.771,52.188,55.405,78.696,72.6,112.601c20.685-31.898,81.34-52.099,84.111-104.287c1.147-21.641-15.461-40.109-37.102-41.256
	C340.051,173.79,321.576,190.405,320.429,212.04z"/>
<path style="fill:#FFFFFF;" d="M225.341,281.065c3.548,12.55-3.803,20.978-10.594,28.763c-1.886,2.166-3.72,4.268-5.179,6.377
	c-3.892,5.625-4.351,11.563,8.492,20.443c23.527,16.271,24.96,24.329,19.137,32.751c-1.51,2.179-3.548,4.256-5.797,6.543v0.013
	c-6.53,6.638-15.117,15.372-13.429,33.255l-7.313,0.669c-2-21.265,7.944-31.382,15.506-39.077l0.006,0.006
	c1.981-2.013,3.778-3.841,4.982-5.581c3.16-4.574,1.23-9.747-17.264-22.533c-17.921-12.391-16.64-21.59-10.365-30.662
	c1.618-2.338,3.631-4.644,5.689-7.008c5.549-6.358,11.55-13.245,9.085-21.979L225.341,281.065z"/>
<polygon style="fill:#FA7876;" points="217.907,271.541 211.097,283.754 231.457,282.384 222.385,271.133 "/>
<polygon style="fill:#FFFFFF;" points="215.002,270.484 225.749,269.617 226.252,275.376 215.512,276.243 "/>
<path style="fill:#FA7876;" d="M311.956,315.702c0.994,1.58,1.905,3.173,2.72,4.784c20.685-31.898,81.34-52.099,84.111-104.287
	c0.663-12.48-4.58-23.903-13.289-31.56c6.543,7.435,10.301,17.334,9.734,28.005C392.5,264.158,333.381,284.505,311.956,315.702z"/>
<path style="fill:#FFFFFF;" d="M320.072,322.474c3.548,12.556-3.803,20.978-10.594,28.763c-1.886,2.166-3.727,4.268-5.179,6.377
	c-3.892,5.625-4.358,11.563,8.486,20.443c23.533,16.271,24.96,24.329,19.137,32.751c-1.503,2.179-3.542,4.256-5.791,6.543
	l-0.006,0.013c-6.524,6.638-15.111,15.372-13.429,33.255l-7.313,0.669c-2-21.265,7.944-31.382,15.512-39.077l0.006,0.006
	c1.981-2.013,3.778-3.841,4.975-5.581c3.16-4.568,1.236-9.741-17.264-22.533c-17.914-12.391-16.634-21.59-10.359-30.662
	c1.618-2.338,3.625-4.644,5.683-7.001c5.549-6.364,11.556-13.245,9.091-21.985L320.072,322.474z"/>
<polygon style="fill:#FA7876;" points="312.632,312.95 305.828,325.163 326.188,323.799 317.11,312.549 "/>
<polygon style="fill:#FFFFFF;" points="309.733,311.893 320.474,311.026 320.977,316.785 310.236,317.652 "/>
</svg>