<?xml version="1.0" encoding="iso-8859-1"?>
<!-- Uploaded to: SVG Repo, www.svgrepo.com, Generator: SVG Repo Mixer Tools -->
<svg height="800px" width="800px" version="1.1" id="Layer_1" xmlns="http://www.w3.org/2000/svg" xmlns:xlink="http://www.w3.org/1999/xlink" 
	 viewBox="0 0 512 512" xml:space="preserve">
<circle style="fill:#273B7A;" cx="256" cy="256" r="256"/>
<path style="fill:#121149;" d="M317.733,504.489c90.472-22.404,161.957-92.91,185.753-182.827L339.742,157.918l-6.072,22.149
	L256,102.398l-71.828,85.795l23.654,23.654l-40.038,24.343l31.03,31.03l-2.724,1.708l19.863,19.865l-5.03,107.83L317.733,504.489z"
	/>
<g>
	<path style="fill:#FEE187;" d="M213.333,397.36c-2.381,0-4.31-1.929-4.31-4.31V260.31c0-2.381,1.929-4.31,4.31-4.31
		s4.31,1.929,4.31,4.31v132.741C217.643,395.431,215.714,397.36,213.333,397.36z"/>
	<path style="fill:#FEE187;" d="M298.667,430.976c-2.381,0-4.31-1.929-4.31-4.31V293.926c0-2.381,1.929-4.31,4.31-4.31
		s4.31,1.929,4.31,4.31v132.741C302.976,429.047,301.047,430.976,298.667,430.976z"/>
</g>
<polygon style="fill:#6CAF5F;" points="207.588,249.966 196.094,268.929 230.572,268.929 219.079,249.966 "/>
<polygon style="fill:#477F3C;" points="219.079,249.966 213.478,249.966 213.478,268.929 230.572,268.929 "/>
<polygon style="fill:#FF5419;" points="292.921,308.579 281.428,327.542 315.906,327.542 304.412,308.579 "/>
<polygon style="fill:#C92F00;" points="304.412,308.579 298.524,308.579 298.524,327.542 315.906,327.542 "/>
<ellipse style="fill:#8BC180;" cx="213.333" cy="170.667" rx="71.111" ry="85.333"/>
<path style="fill:#6CAF5F;" d="M213.333,85.333c39.274,0,71.111,38.205,71.111,85.333S252.607,256,213.333,256V85.333z"/>
<ellipse style="fill:#C92F00;" cx="298.667" cy="227.556" rx="71.111" ry="85.333"/>
<path style="fill:#930000;" d="M298.667,142.222c-0.048,0-0.095,0.003-0.143,0.005v170.658c0.048,0,0.095,0.005,0.143,0.005
	c39.274,0,71.111-38.205,71.111-85.333C369.778,180.427,337.941,142.222,298.667,142.222z"/>
</svg>