<svg xmlns="http://www.w3.org/2000/svg" fill="white" viewBox="0 0 24 24">
<path d="M 12.003 1.131 a 10.487 10.487 0 0 0 -10.87 10.57 a 10.194 10.194 0 0 0 3.412 7.771 l 0.054 1.78 a 1.67 1.67 0 0 0 2.342 1.476 l 1.935 -0.872 a 11.767 11.767 0 0 0 3.127 0.416 a 10.488 10.488 0 0 0 10.87 -10.57 a 10.487 10.487 0 0 0 -10.87 -10.57 Z m 5.786 9.001 l -2.566 3.983 a 1.577 1.577 0 0 1 -2.278 0.42 l -2.452 -1.84 a 0.63 0.63 0 0 0 -0.759 0.002 l -2.556 2.049 a 0.659 0.659 0 0 1 -0.96 -0.874 L 8.783 9.89 a 1.576 1.576 0 0 1 2.277 -0.42 l 2.453 1.84 a 0.63 0.63 0 0 0 0.758 -0.003 l 2.556 -2.05 a 0.659 0.659 0 0 1 0.961 0.874 Z"/>
</svg>
