<svg xmlns="http://www.w3.org/2000/svg" fill="white" viewBox="0 0 24 24">
<path d="M 17.075 1.987 a 5.852 5.852 0 0 0 -5.07 2.66 l -0.008 0.012 l -0.01 -0.014 a 5.878 5.878 0 0 0 -5.062 -2.658 A 6.719 6.719 0 0 0 0.5 8.952 c 0 3.514 2.581 5.757 5.077 7.927 c 0.302 0.262 0.607 0.527 0.91 0.797 l 1.089 0.973 c 2.112 1.89 3.149 2.813 3.642 3.133 a 1.438 1.438 0 0 0 1.564 0 c 0.472 -0.306 1.334 -1.07 3.755 -3.234 l 0.978 -0.874 c 0.314 -0.28 0.631 -0.555 0.945 -0.827 c 2.478 -2.15 5.04 -4.372 5.04 -7.895 a 6.719 6.719 0 0 0 -6.425 -6.965 Z"/>
</svg>
