
<svg xmlns="http://www.w3.org/2000/svg" fill="white"  viewBox="0 0 25 25">
  <path d= "m 12.823 1 l 2.974 5.002 h -5.58 l -2.65 -4.971 c 0.206 -0.013 0.419 -0.022 0.642 -0.027 L 8.55 1 Z m 2.327 0 h 0.298 c 3.06 0 4.468 0.754 5.64 1.887 a 6.007 6.007 0 0 1 1.596 2.82 l 0.07 0.295 h -4.629 L 15.15 1 Z m -9.667 0.377 L 7.95 6.002 H 1.244 a 6.01 6.01 0 0 1 3.942 -4.53 Z m 9.735 12.834 l -4.545 -2.624 a 0.909 0.909 0 0 0 -1.356 0.668 l -0.008 0.12 v 5.248 a 0.91 0.91 0 0 0 1.255 0.84 l 0.109 -0.053 l 4.545 -2.624 a 0.909 0.909 0 0 0 0.1 -1.507 l -0.1 -0.068 l -4.545 -2.624 Z m -14.2 -6.209 h 21.964 l 0.015 0.36 l 0.003 0.189 v 6.899 c 0 3.061 -0.755 4.469 -1.888 5.64 c -1.151 1.114 -2.5 1.856 -5.33 1.909 l -0.334 0.003 H 8.551 c -3.06 0 -4.467 -0.755 -5.64 -1.889 c -1.114 -1.15 -1.854 -2.498 -1.908 -5.33 L 1 15.45 V 8.551 l 0.003 -0.189 Z" />
</svg>