<svg fill="rgb(170,170,170)" version="1.1" id="Capa_1" xmlns="http://www.w3.org/2000/svg" xmlns:xlink="http://www.w3.org/1999/xlink" 
	 viewBox="0 0 398.929 398.929" xml:space="preserve">
<g>
	<path d="M310.983,53.245c-3.976-15.01-13.555-27.565-26.975-35.352c-8.833-5.126-18.884-7.836-29.066-7.836
		c-20.681,0-39.955,11.075-50.3,28.902c-16.073,27.697-6.619,63.306,21.075,79.377c8.866,5.146,18.938,7.865,29.125,7.865
		c20.63,0,39.884-11.093,50.247-28.95C312.86,83.862,314.953,68.234,310.983,53.245z M287.792,87.213
		c-6.797,11.712-19.422,18.989-32.949,18.989c-6.666,0-13.266-1.786-19.086-5.163C217.6,90.502,211.402,67.156,221.94,48.998
		c6.78-11.683,19.426-18.941,33.002-18.941c6.66,0,13.24,1.775,19.027,5.134c8.794,5.104,15.073,13.334,17.68,23.175
		C294.253,68.195,292.883,78.439,287.792,87.213z"/>
	<path d="M279.374,238.944c-18.7,0.651-35.449-5.629-48.436-18.19c-3.7-3.578-7.015-7.63-9.953-12.043
		c10.91-14.712,18.553-27.202,21.155-39.278c5.236-24.294-11.672-40.891-24.842-51.258c-14.134-11.137-26.189-16.324-37.936-16.324
		c-10.345,0-19.404,3.899-28.5,11.053c-16.903-7.926-34.642-11.145-51.692-9.304c-20.433,2.208-38.928,11.634-53.487,27.259
		c-3.765,4.041-3.541,10.369,0.5,14.133c1.927,1.795,4.374,2.684,6.814,2.684c2.678,0,5.35-1.069,7.319-3.183
		c19.379-20.799,47.209-26.648,74.883-16.486c-6.178,6.876-12.68,14.959-19.87,24.102c-23.372,29.663-32.029,49.096-29.88,67.076
		c0.733,6.133,2.75,11.888,6.125,17.439c1.188,7.348,4.845,38.468-12.955,64.344C64.852,320.98,41.25,333.701,8.47,338.776
		c-4.874,0.755-8.47,4.95-8.47,9.882v30.213c0,5.523,4.477,10,10,10c5.523,0,10-4.477,10-10v-21.832
		c34.228-6.857,59.516-21.955,75.24-44.948c12.614-18.445,16.58-38.463,17.357-54.038c10.552,7.646,20.213,11.57,29.956,12.164
		c0.508,0.063,1.023,0.1,1.55,0.084c0.213-0.007,0.421-0.001,0.634-0.006c0.148,0.001,0.295,0.011,0.443,0.011
		c0.476,0,0.951-0.014,1.425-0.03c22.543-0.154,41.811,7.46,55.82,22.124c18.367,19.227,26.942,49.661,24.147,85.697
		c-0.215,2.778,0.738,5.521,2.631,7.565c1.893,2.045,4.553,3.208,7.339,3.208h30.213c5.523,0,10-4.477,10-10c0-5.523-4.477-10-10-10
		h-19.709c0.785-37.161-9.76-68.931-30.161-90.286c-10.265-10.746-22.622-18.533-36.599-23.195
		c8.542-7.149,17.671-17.054,27.952-30.125c2.711,3.519,5.645,6.818,8.794,9.864c16.183,15.652,36.734,23.863,59.622,23.862
		c1.135,0,2.279-0.021,3.425-0.061c5.52-0.195,9.836-4.828,9.641-10.347C289.525,243.065,284.902,238.756,279.374,238.944z
		 M192.526,212.893c-19.867,25.261-33.734,36.566-45.952,37.364c-0.661,0.004-1.325,0.018-1.99,0.033
		c-6.798-0.185-14.134-3.532-23.025-10.511c-10.169-7.983-15.333-15.281-16.251-22.966c-1.412-11.811,6.524-27.949,25.737-52.333
		c10.72-13.633,19.537-24.504,27.451-31.86c0.327-0.26,0.633-0.551,0.928-0.855c7.11-6.415,13.509-9.914,19.939-9.914
		c6.921,0,15.282,3.937,25.562,12.036c18.347,14.443,19.334,23.595,17.666,31.333c-1.43,6.637-5.521,14.212-11.525,23.011
		c-3.433-10.279-5.253-21.57-5.23-33.34c0.011-5.522-4.457-10.009-9.98-10.02c-0.007,0-0.013,0-0.021,0
		c-5.513,0-9.988,4.464-9.999,9.98c-0.038,18.793,3.925,36.703,11.282,52.183C195.629,208.944,194.106,210.887,192.526,212.893z"/>
</g>
</svg>