<?xml version="1.0" encoding="iso-8859-1"?>
<svg fill="rgb(170,170,170)" version="1.1" id="Capa_1" xmlns="http://www.w3.org/2000/svg" xmlns:xlink="http://www.w3.org/1999/xlink" 
	 width="800px" height="800px" viewBox="0 0 199.771 199.771"
	 xml:space="preserve">
<g>
	<g>
		<g>
			<path d="M45.779,123.901c0.189,0.073,18.979,7.381,24.895,10.258c14.518,7.062,15.934,12.571,25.146,48.438
				c1.01,3.936,2.109,8.213,3.326,12.881c0.41,1.574,2.285,2.99,4.27,2.503c1.878-0.462,2.992-2.397,2.506-4.271
				c-1.217-4.656-2.312-8.931-3.32-12.854c-9.239-35.969-11.436-44.515-28.865-52.989c-5.323-2.59-19.788-8.285-24.171-10
				c-0.95-2.316-3.075-9.641-0.424-24.683C52.295,75.288,71.5,65.105,71.694,65.005c1.714-0.889,2.385-2.998,1.499-4.714
				c-0.887-1.717-3-2.393-4.716-1.503c-0.916,0.473-22.467,11.829-26.229,33.181c-3.818,21.666,1.331,29.818,1.931,30.675
				C44.575,123.211,45.132,123.651,45.779,123.901z"/>
			<path d="M75.807,57.391c5.77,4.646,8.675,8.941,9.068,12.732c0.494,4.76-4.985,9.723-5.397,10.149
				c-6.986,7.227-17.542,18.147-13.729,37.471c0.329,1.668,1.323,3.144,4.111,2.756c2.634-0.365,3.13-2.215,2.756-4.111
				c-3.104-15.731,5.212-24.337,11.895-31.25c0.422-0.437,7.858-6.254,7.349-15.47c-0.326-5.924-4.2-11.72-11.662-17.729
				C61.678,37.024,48.482,2.607,48.35,2.261c-0.685-1.807-2.707-2.718-4.513-2.033c-1.808,0.685-2.718,2.704-2.034,4.512
				C42.366,6.225,55.796,41.276,75.807,57.391z"/>
			<path d="M92.912,54.313c0.231-0.104,23.805-10.372,61.396,2.331c0.371,0.125,3.334,1.197,4.436-2.195
				c0.599-1.839-0.361-3.817-2.193-4.437c-40.412-13.656-65.492-2.548-66.54-2.069c-1.753,0.803-2.522,2.871-1.725,4.627
				C89.078,54.327,91.153,55.105,92.912,54.313z"/>
			<path d="M62.177,173.559l-1.713,22.439c-0.147,1.928,1.302,3.541,3.223,3.758c1.683,0.189,3.616-1.387,3.756-3.225l1.713-22.439
				c0.147-1.928-1.296-3.608-3.223-3.756C64.015,170.196,62.325,171.631,62.177,173.559z"/>
		</g>
		<path d="M59.161,166.855c8.914,0,16.166-7.254,16.166-16.168c0-8.913-7.252-16.166-16.166-16.166
			c-8.915,0-16.168,7.253-16.168,16.166C42.993,159.602,50.246,166.855,59.161,166.855z M59.161,141.521
			c5.055,0,9.166,4.111,9.166,9.166c0,5.056-4.111,9.168-9.166,9.168c-5.055,0-9.168-4.112-9.168-9.168
			C49.993,145.633,54.107,141.521,59.161,141.521z"/>
	</g>
</g>
</svg>