<svg fill="rgb(170,170,170)" version="1.1" id="Capa_1" xmlns="http://www.w3.org/2000/svg" xmlns:xlink="http://www.w3.org/1999/xlink" 
	 viewBox="0 0 479.862 479.862" xml:space="preserve">
<g>
	<path d="M372.367,294.318c-12.451,0-24.333,2.472-35.192,6.94l-19.649-36.216l24.512-45.18h19.292
		c10.004,0,18.143,8.139,18.143,18.143c0,5.522,4.477,10,10,10c5.523,0,10-4.478,10-10c0-21.032-17.111-38.143-38.143-38.143
		h-22.844l-59.485-30.301c0.475-3.046,0.735-6.001,0.717-8.869c-0.155-24.851-20.259-37.387-35.363-44.653
		c-12.116-5.835-22.456-8.672-31.611-8.672c-29.879,0-44.107,29.618-60.578,63.903c-16.386,34.023-20.624,54.871-14.629,71.958
		c3.633,10.355,10.921,18.688,22.646,25.781l-17.497,32.249c-10.858-4.469-22.741-6.94-35.192-6.94
		c-51.155,0-92.772,41.617-92.772,92.772c0,51.154,41.618,92.772,92.772,92.772c47.776,0,87.228-36.303,92.232-82.772h38.504
		l12.527,4.39c1.094,0.384,2.21,0.565,3.307,0.565c4.129,0,7.995-2.578,9.437-6.696c1.826-5.212-0.918-10.918-6.13-12.744
		l-3.051-1.069l51.827-95.525l13.462,24.812c-24.161,16.764-40.016,44.697-40.016,76.267c0,51.154,41.617,92.772,92.772,92.772
		c51.155,0,92.773-41.617,92.773-92.772C465.139,335.935,423.521,294.318,372.367,294.318z M170.19,179.939
		c17.56-36.553,26.892-52.572,42.555-52.572c6.083,0,13.584,2.189,22.937,6.693c20.078,9.659,23.678,18.04,24.008,25.664
		l-23.794-12.12c-4.921-2.509-10.943-0.551-13.45,4.371c-2.507,4.921-0.549,10.942,4.372,13.449l28.798,14.669
		c-3.38,9.522-8.629,20.731-14.912,33.78c-10.074,20.965-18.727,34.186-27.326,41.168h-37.058
		c-11.071-5.459-17.418-11.332-19.911-18.436C152.472,225.382,156.721,207.908,170.19,179.939z M178.074,277.974
		c21.957,11.041,35.433,23.842,41.062,38.962c5.98,16.065,3.412,35.929-7.636,59.041c-0.174,0.363-0.318,0.737-0.446,1.114h-11.328
		c-2.952-27.42-17.9-51.297-39.476-66.267L178.074,277.974z M179.564,377.091h-55.265l26.344-48.557
		C166.057,339.922,176.822,357.24,179.564,377.091z M107.496,459.862c-40.127,0-72.773-32.646-72.773-72.772
		c0-40.127,32.646-72.772,72.773-72.772c9,0,17.618,1.654,25.581,4.654l-34.371,63.35c-1.681,3.099-1.606,6.854,0.196,9.883
		c1.803,3.029,5.068,4.886,8.593,4.886h72.068C174.673,432.5,144.228,459.862,107.496,459.862z M235.202,374.837l-1.199-0.42
		c9.542-24.081,10.851-45.725,3.876-64.459c-4.458-11.977-12.206-22.643-23.411-32.155c1.848-0.789,3.644-1.714,5.394-2.761h69.485
		L235.202,374.837z M300.198,255.042h-59.932c6.462-9.009,12.461-20.009,18.462-32.499c5.988-12.436,11.113-23.404,14.807-33.321
		l48.868,24.893L300.198,255.042z M372.367,459.862c-40.126,0-72.772-32.646-72.772-72.772c0-23.986,11.67-45.292,29.625-58.557
		l34.358,63.325c1.811,3.34,5.249,5.233,8.798,5.233c1.611,0,3.245-0.391,4.76-1.212c4.854-2.634,6.654-8.704,4.021-13.559
		l-34.37-63.35c7.963-3,16.581-4.654,25.581-4.654c40.127,0,72.773,32.646,72.773,72.772
		C445.139,427.217,412.494,459.862,372.367,459.862z"/>
	<path d="M207.151,49.504l5.481,1.74c-1.619,11.78,0.406,23.745,5.99,34.512c7.137,13.762,19.208,23.925,33.988,28.615
		c5.821,1.848,11.719,2.726,17.524,2.726c24.631,0,47.549-15.814,55.389-40.515c4.683-14.756,3.338-30.467-3.786-44.238
		C314.603,18.553,302.529,8.373,287.74,3.68C280.047,1.238,271.869,0,263.434,0c-30.065,0-55.885,15.193-62.789,36.947
		c-0.803,2.528-0.568,5.271,0.652,7.626S204.623,48.702,207.151,49.504z M258.66,95.309c-9.691-3.076-17.605-9.738-22.284-18.761
		c-3.106-5.99-4.529-12.547-4.243-19.115l70.024,22.224C293.072,93.725,275.367,100.608,258.66,95.309z M263.434,20
		c6.38,0,12.523,0.923,18.257,2.742c9.692,3.076,17.605,9.749,22.283,18.791c3.095,5.983,4.528,12.522,4.25,19.066L225.06,34.205
		C233.008,25.709,247.652,20,263.434,20z"/>
</g>
</svg>