<svg fill="rgb(170,170,170)" version="1.1" id="Capa_1" xmlns="http://www.w3.org/2000/svg" xmlns:xlink="http://www.w3.org/1999/xlink" 
	 viewBox="0 0 445.794 445.794" xml:space="preserve">
<g>
	<path d="M244.266,114.343c4.72,1.202,9.562,1.811,14.391,1.811c26.535,0,49.648-17.997,56.209-43.765
		c7.898-31.023-10.918-62.689-41.947-70.589C268.225,0.606,263.406,0,258.596,0c-26.578,0-49.72,17.984-56.276,43.735
		C194.418,74.768,213.235,106.443,244.266,114.343z M221.701,48.669C225.999,31.789,241.17,20,258.596,20
		c3.147,0,6.306,0.398,9.389,1.183c20.341,5.179,32.677,25.937,27.499,46.272c-4.302,16.897-19.446,28.699-36.827,28.699
		c-3.166,0-6.348-0.401-9.457-1.193C228.857,89.782,216.521,69.016,221.701,48.669z"/>
	<path d="M429.807,242.176c-3.833-3.976-10.163-4.093-14.14-0.261l-18.648,17.974c-26.182-7.565-57.612-14.028-88.347-13.953
		c-4.606-46.07-13.941-65.346-20.766-73.393c1.771-25.936-7.099-45.536-44.444-55.044c-8.508-2.166-15.855-3.219-22.463-3.219
		c-15.709,0-26.416,6.074-34.32,16.072c-37.54-14.812-63.279-42.64-72.834-79.025c-1.403-5.341-6.867-8.532-12.212-7.132
		c-5.342,1.403-8.535,6.87-7.132,12.212c11.005,41.907,40.015,74.04,82.209,91.483c-5.123,12.146-8.822,26.662-12.72,41.97
		c-2.971,11.67-5.176,22.448-6.238,32.28c-31.896-28.81-78.822-44.537-117.243-53.02l-7.782-24.703
		c-1.659-5.268-7.276-8.191-12.543-6.533c-5.268,1.66-8.192,7.275-6.533,12.543l9.532,30.258c1.089,3.456,3.962,6.052,7.51,6.787
		c43.947,9.102,102.004,28.061,129.012,66.684c0.04,0.058,0.089,0.107,0.13,0.164c5.033,15.625,17.324,26.669,40.498,32.57
		c7.311,1.861,13.78,2.766,19.778,2.766c13.09,0,23.21-4.283,31.336-11.989c0.073-0.034,0.148-0.06,0.221-0.096
		c11.733-5.842,24.851-9.193,38.595-10.716c0.604,9.968,1.012,21.109,1.154,33.563H177.122c-13.939,0-27.352,5.833-36.802,16.005
		c-8.713,9.378-13.011,21.333-12.102,33.661c0.857,11.628,6.547,51.017,6.789,52.688c0.711,4.918,4.927,8.568,9.897,8.568h28.595
		v24.454c0,5.523,4.477,10,10,10c5.523,0,10-4.477,10-10V411.34h133.708v24.454c0,5.523,4.477,10,10,10c5.523,0,10-4.477,10-10
		V411.34h28.595c4.97,0,9.186-3.65,9.897-8.568c0.242-1.671,5.931-41.059,6.788-52.688c0.909-12.328-3.389-24.282-12.101-33.661
		c-9.449-10.172-22.863-16.005-36.802-16.005H311.42c-0.141-12.683-0.549-24.169-1.173-34.56
		c30.041,0.162,61.299,7.169,86.616,14.844c0.955,0.29,1.931,0.431,2.9,0.43c2.552,0,5.05-0.977,6.94-2.8l22.842-22.016
		C433.522,252.483,433.639,246.152,429.807,242.176z M259.272,214.12c-11.826,46.45-23.314,55.537-39.159,55.537
		c-4.312,0-9.167-0.703-14.844-2.148c-26.762-6.813-35.719-18.423-21.896-72.713c11.936-46.884,18.323-60.515,37.626-60.515
		c4.921,0,10.655,0.851,17.528,2.601C273.207,145.711,273.438,158.481,259.272,214.12z M268.712,250.384
		c3.783-9.193,6.988-19.726,9.943-31.33c1.067-4.191,2.113-8.304,3.1-12.335c2.534,9.263,5.069,22.23,6.916,40.264
		C281.893,247.703,275.219,248.82,268.712,250.384z M343.584,320.417c8.275,0,16.555,3.595,22.15,9.618
		c4.886,5.259,7.303,11.857,6.808,18.578c-0.573,7.782-3.662,30.265-5.416,42.727H153.581c-1.754-12.462-4.843-34.944-5.417-42.727
		c-0.496-6.721,1.922-13.318,6.808-18.578c5.595-6.022,13.875-9.618,22.149-9.618H343.584z"/>
</g>
</svg>